<svg width="60" height="60" viewBox="0 0 60 60" fill="none" xmlns="http://www.w3.org/2000/svg">
<path d="M30 60C46.5685 60 60 46.5685 60 30C60 13.4315 46.5685 0 30 0C13.4315 0 0 13.4315 0 30C0 46.5685 13.4315 60 30 60Z" fill="#F3F3F3"/>
<path fill-rule="evenodd" clip-rule="evenodd" d="M37 21.5C37 25.0899 34.0899 28 30.5 28C26.9101 28 24 25.0899 24 21.5C24 17.9101 26.9101 15 30.5 15C34.0899 15 37 17.9101 37 21.5ZM30.5 26.5556C33.2921 26.5556 35.5556 24.2921 35.5556 21.5C35.5556 18.7079 33.2921 16.4444 30.5 16.4444C27.7079 16.4444 25.4444 18.7079 25.4444 21.5C25.4444 24.2921 27.7079 26.5556 30.5 26.5556Z" fill="#C6C7CB"/>
<path fill-rule="evenodd" clip-rule="evenodd" d="M41.9 44.5C42.2866 44.5 42.6 44.1866 42.6 43.8V39.8C42.6 36.0445 39.5555 33 35.8 33H24.8C21.0445 33 18 36.0445 18 39.8V43.8C18 44.1866 18.3134 44.5 18.7 44.5H18.9C19.2866 44.5 19.6 44.1866 19.6 43.8V39.8C19.6 36.9281 21.9281 34.6 24.8 34.6H35.8C38.6719 34.6 41 36.9281 41 39.8V43.8C41 44.1866 41.3134 44.5 41.7 44.5H41.9ZM18.9 39.8V43.8H18.8997V39.8002C18.8997 37.7619 19.9333 35.9651 21.5049 34.9051C19.9335 35.9651 18.9 37.7619 18.9 39.8ZM41.8997 43.8H41.9V39.8C41.9 36.4311 39.1689 33.7 35.8 33.7H24.8C23.5481 33.7 22.3843 34.0771 21.416 34.724C22.3842 34.0772 23.5479 33.7002 24.7997 33.7002H35.7997C39.1686 33.7002 41.8997 36.4313 41.8997 39.8002V43.8Z" fill="#C6C7CB"/>
</svg>
