<svg width="115" height="25" viewBox="0 0 115 25" fill="none" xmlns="http://www.w3.org/2000/svg">
<g clip-path="url(#clip0)">
<path d="M25.3 9.40002C24.8 9.20002 24.4 9.10002 24 9.10002C23.6 9.10002 23.1 8.90002 22.9 8.50002L21.4 5.90002C21.2 5.50002 21.2 5.00002 21.4 4.60002C21.7 4.10002 21.9 3.40002 21.8 2.70002C21.7 1.30002 20.5 0.100023 19.1 2.29822e-05C17.8 -0.099977 16.7 0.500023 16.1 1.50002C15.9 1.90002 15.5 2.10002 15 2.10002H12.1C11.7 2.10002 11.2 1.80002 11 1.50002C10.4 0.500023 9.29998 -0.099977 7.99998 2.29822e-05C6.69998 0.200023 5.49998 1.40002 5.39998 2.80002C5.29998 3.50002 5.49998 4.10002 5.79998 4.70002C5.99998 5.00002 6.09998 5.50002 5.79998 5.90002L4.39998 8.50002C4.09998 8.90002 3.69998 9.10002 3.19998 9.10002C2.89998 9.10002 2.69998 9.10002 2.39998 9.20002C1.19998 9.50002 0.199983 10.5 -1.70544e-05 11.7C-0.300017 13.6 1.09998 15.3 2.99998 15.3H3.09998C3.49998 15.3 3.99998 15.5 4.19998 15.9L5.69998 18.5C5.89998 18.9 5.89998 19.4 5.69998 19.8C5.39998 20.3 5.19998 21 5.29998 21.6C5.39998 23 6.59998 24.2 7.99998 24.3C9.19998 24.4 10.4 23.8 11 22.8C11.2 22.4 11.6 22.2 12.1 22.2H15.1C15.5 22.2 16 22.5 16.2 22.8C16.7 23.7 17.8 24.3 18.9 24.3C20.5 24.3 21.9 22.9 21.9 21.3C22 19.6 20.6 18.2 18.8 18.2C17.6 18.2 16.5 18.9 16 19.9C15.8 20.3 15.4 20.6 14.9 20.6H12.2C11.7 20.6 11.3 20.3 11.1 19.9C10.6 18.9 9.49998 18.2 8.29998 18.2C8.19998 18.2 8.19998 18.2 8.09998 18.2C7.69998 18.2 7.19998 18 6.99998 17.6L5.49998 15.1C5.29998 14.7 5.29998 14.2 5.49998 13.8C5.49998 13.8 5.49998 13.8 5.49998 13.7C5.69998 13.3 6.09998 13.1 6.59998 13.1H9.69998C10.2 13.1 10.6 13.4 10.8 13.8C11.3 14.7 12.3 15.3 13.4 15.3C14.5 15.3 15.5 14.7 16.1 13.7C16.3 13.3 16.7 13 17.2 13H21C21.3 14.3 22.5 15.2 24 15.2C25.8 15.2 27.2 13.6 27.1 11.8C27 10.8 26.3 9.80002 25.3 9.40002ZM13.6 9.10002C12.4 9.10002 11.4 9.80002 10.9 10.8C10.7 11.2 10.3 11.4 9.79998 11.4H6.89998C6.39998 11.4 5.99998 11.1 5.79998 10.7C5.79998 10.6 5.69998 10.6 5.69998 10.5C5.49998 10.1 5.39998 9.70002 5.69998 9.30002L7.19998 6.60002C7.39998 6.20002 7.89998 6.00002 8.29998 6.00002H8.39998C9.59998 6.00002 10.6 5.30002 11.1 4.30002C11.3 3.90002 11.7 3.60002 12.2 3.60002H15C15.4 3.60002 15.9 3.90002 16.1 4.30002C16.6 5.30002 17.6 6.00002 18.8 6.00002H18.9C19.4 6.00002 19.8 6.20002 20 6.60002L21.4 9.10002C21.6 9.50002 21.7 10 21.4 10.4C21.2 10.7 21.1 10.9 21.1 11.3H17.3C16.8 11.3 16.4 11 16.2 10.6C15.7 9.80002 14.7 9.10002 13.6 9.10002Z" fill="url(#paint0_linear)"/>
<path d="M41 8.5C41.3 8.5 41.5 8.4 41.7 8.2C41.9 8 42 7.8 42 7.6C42 7.3 41.9 7.1 41.7 6.9C41.5 6.7 41.3 6.6 41 6.6H35.8C35.5 6.6 35.3 6.7 35.1 6.9C34.9 7.1 34.8 7.3 34.8 7.6V16.6C34.8 16.9 34.9 17.1 35.1 17.3C35.3 17.5 35.5 17.6 35.8 17.6H41C41.3 17.6 41.5 17.5 41.7 17.3C41.9 17.1 42 16.9 42 16.7C42 16.4 41.9 16.3 41.7 16.1C41.5 15.9 41.3 15.8 41 15.8H36.8V12.9H40.3C40.6 12.9 40.8 12.8 41 12.6C41.2 12.4 41.3 12.2 41.3 12C41.3 11.7 41.2 11.5 41 11.3C40.8 11.1 40.6 11 40.3 11H36.8V8.4L41 8.5ZM53.2 9.1C52.6 9.1 52 9.3 51.5 9.6C51 9.9 50.6 10.4 50.4 10.8C50.1 9.7 49.2 9.1 47.9 9.1C47.4 9.1 46.9 9.2 46.5 9.5C46.1 9.8 45.7 10.1 45.4 10.5V10.2C45.4 9.9 45.3 9.7 45.1 9.5C44.9 9.3 44.7 9.2 44.4 9.2C44.1 9.2 43.9 9.3 43.7 9.5C43.5 9.7 43.4 9.9 43.4 10.2V16.7C43.4 17 43.5 17.2 43.7 17.4C43.9 17.6 44.1 17.7 44.4 17.7C44.7 17.7 44.9 17.6 45.1 17.4C45.3 17.2 45.4 17 45.4 16.7V12.7C45.4 12.2 45.6 11.7 45.9 11.4C46.2 11.1 46.7 10.9 47.3 10.9C47.9 10.9 48.3 11.1 48.5 11.4C48.7 11.7 48.8 12.2 48.8 12.8V16.8C48.8 17.1 48.9 17.3 49.1 17.5C49.3 17.7 49.5 17.8 49.8 17.8C50.1 17.8 50.3 17.7 50.5 17.5C50.7 17.3 50.8 17.1 50.8 16.8V12.8C50.8 12.3 51 11.8 51.3 11.5C51.6 11.2 52.1 11 52.7 11C53.3 11 53.7 11.2 53.9 11.5C54.1 11.8 54.2 12.3 54.2 12.9V16.9C54.2 17.2 54.3 17.4 54.5 17.6C54.7 17.8 54.9 17.9 55.2 17.9C55.5 17.9 55.7 17.8 55.9 17.6C56.1 17.4 56.2 17.2 56.2 16.9V12.9C56.2 11.8 56 10.9 55.6 10.3C55 9.5 54.2 9.1 53.2 9.1ZM64.4 9.7C63.8 9.3 63.2 9.2 62.5 9.2C62 9.2 61.5 9.3 61.1 9.5C60.7 9.7 60.3 10 60.1 10.3V10.2C60.1 9.9 60 9.7 59.8 9.5C59.6 9.3 59.4 9.2 59.1 9.2C58.8 9.2 58.6 9.3 58.4 9.5C58.2 9.7 58.1 9.9 58.1 10.2V19.8C58.1 20.1 58.2 20.3 58.4 20.5C58.6 20.7 58.8 20.8 59.1 20.8C59.4 20.8 59.6 20.7 59.8 20.5C60 20.3 60.1 20.1 60.1 19.8V16.7C60.4 17 60.8 17.2 61.2 17.4C61.6 17.6 62.1 17.7 62.6 17.7C63.3 17.7 63.9 17.5 64.5 17.2C65.1 16.8 65.5 16.3 65.9 15.6C66.2 14.9 66.4 14.2 66.4 13.3C66.4 12.5 66.2 11.7 65.9 11.1C65.5 10.6 65 10.1 64.4 9.7ZM63.9 15.4C63.5 15.9 62.9 16.2 62.2 16.2C61.5 16.2 61 15.9 60.5 15.4C60 14.9 59.9 14.3 59.9 13.5C59.9 12.7 60.1 12.1 60.5 11.6C60.9 11.1 61.5 10.9 62.2 10.9C62.9 10.9 63.4 11.2 63.9 11.6C64.3 12.1 64.5 12.7 64.5 13.5C64.5 14.2 64.3 14.8 63.9 15.4ZM72.5 9.1C72 9.1 71.5 9.2 71.1 9.5C70.7 9.8 70.3 10.1 70 10.5V7C70 6.7 69.9 6.5 69.7 6.3C69.5 6.1 69.3 6 69 6C68.7 6 68.5 6.1 68.3 6.3C68.1 6.5 68 6.7 68 7V16.7C68 17 68.1 17.2 68.3 17.4C68.5 17.6 68.7 17.7 69 17.7C69.3 17.7 69.5 17.6 69.7 17.4C69.9 17.2 70 17 70 16.7V12.7C70 12.2 70.2 11.7 70.5 11.4C70.8 11.1 71.3 10.9 71.9 10.9C72.5 10.9 72.9 11.1 73.1 11.4C73.3 11.7 73.4 12.2 73.4 12.8V16.8C73.4 17.1 73.5 17.3 73.7 17.5C73.9 17.7 74.1 17.8 74.4 17.8C74.7 17.8 74.9 17.7 75.1 17.5C75.3 17.3 75.4 17.1 75.4 16.8V12.8C75.4 11.7 75.2 10.8 74.8 10.2C74.2 9.5 73.5 9.1 72.5 9.1ZM84.2 9.1C83.9 9.1 83.7 9.2 83.5 9.4C83.3 9.6 83.2 9.8 83.2 10.1C82.9 9.8 82.5 9.6 82.1 9.4C81.7 9.2 81.2 9.1 80.7 9.1C80 9.1 79.4 9.3 78.8 9.6C78.2 10 77.8 10.5 77.4 11.2C77.1 11.9 76.9 12.6 76.9 13.5C76.9 14.3 77.1 15.1 77.4 15.7C77.7 16.4 78.2 16.9 78.8 17.2C79.4 17.6 80 17.7 80.7 17.7C81.2 17.7 81.7 17.6 82.1 17.4C82.5 17.2 82.9 16.9 83.1 16.6C83.1 16.9 83.2 17.1 83.4 17.3C83.6 17.5 83.8 17.6 84.1 17.6C84.4 17.6 84.6 17.5 84.8 17.3C85 17.1 85.1 16.9 85.1 16.6V10C85.1 9.7 85 9.5 84.8 9.3C84.7 9.2 84.5 9.1 84.2 9.1ZM82.7 15.4C82.3 15.9 81.7 16.1 81 16.1C80.3 16.1 79.8 15.8 79.3 15.4C78.9 14.9 78.7 14.3 78.7 13.5C78.7 12.7 78.9 12.1 79.3 11.6C79.7 11.1 80.3 10.8 81 10.8C81.7 10.8 82.2 11.1 82.7 11.6C83.1 12.1 83.3 12.7 83.3 13.5C83.3 14.2 83.1 14.8 82.7 15.4ZM92.6 12.3C92.1 12.1 91.5 11.9 90.8 11.6C89.9 11.3 89.3 11 88.8 10.7C88.4 10.4 88.1 9.9 88.1 9.3C88.1 8.7 88.4 8.3 88.8 7.9C89.3 7.6 89.9 7.4 90.6 7.4C91.1 7.4 91.6 7.5 92.1 7.7C92.7 8 93 8.3 93.3 8.6C93.4 8.7 93.5 8.7 93.6 8.7C93.7 8.7 93.9 8.6 93.9 8.5C93.9 8.4 94.1 8.3 94.1 8.2C94.1 8.1 94 7.9 93.9 7.8C93.6 7.4 93.1 7.1 92.6 6.9C92 6.7 91.5 6.6 90.8 6.6C90.1 6.6 89.5 6.7 89 7C88.5 7.3 88 7.6 87.8 8C87.5 8.4 87.4 8.9 87.4 9.5C87.4 10.1 87.5 10.6 87.8 11C88.1 11.4 88.4 11.7 88.9 12C89.3 12.3 89.9 12.4 90.6 12.7C91.2 12.9 91.7 13.1 92.1 13.3C92.5 13.5 92.8 13.7 93.1 14C93.4 14.3 93.5 14.7 93.5 15.1C93.5 15.7 93.2 16.1 92.8 16.5C92.3 16.8 91.7 17 90.9 17C89.7 17 88.7 16.6 87.8 15.7C87.7 15.6 87.6 15.5 87.5 15.5C87.4 15.5 87.3 15.6 87.2 15.7C87.1 15.8 87 15.9 87 16C87 16.2 87.1 16.3 87.2 16.4C87.7 16.9 88.3 17.3 88.9 17.6C89.5 17.9 90.1 18 90.9 18C91.6 18 92.2 17.9 92.8 17.6C93.3 17.3 93.8 17 94.1 16.6C94.4 16.2 94.5 15.7 94.5 15.2C94.5 14.5 94.3 14 94.1 13.5C93.5 12.9 93.1 12.6 92.6 12.3ZM101.8 10C101.2 9.7 100.5 9.5 99.8 9.5C99.1 9.5 98.4 9.7 97.8 10C97.2 10.3 96.7 10.9 96.4 11.5C96.1 12.1 95.9 12.8 95.9 13.6C95.9 14.4 96.1 15.1 96.4 15.7C96.7 16.3 97.2 16.8 97.8 17.2C98.4 17.5 99.1 17.7 99.8 17.7C100.5 17.7 101.2 17.5 101.8 17.2C102.4 16.9 102.9 16.3 103.2 15.7C103.5 15.1 103.7 14.4 103.7 13.6C103.7 12.8 103.5 12.1 103.2 11.5C102.8 10.9 102.4 10.4 101.8 10ZM102.4 15.4C102.1 15.9 101.8 16.3 101.3 16.6C100.8 16.9 100.3 17 99.8 17C99.2 17 98.7 16.8 98.3 16.6C97.9 16.4 97.5 15.9 97.2 15.4C96.9 14.9 96.8 14.4 96.8 13.7C96.8 13.1 96.9 12.5 97.2 12C97.5 11.5 97.8 11.1 98.3 10.8C98.7 10.5 99.3 10.4 99.8 10.4C100.3 10.4 100.9 10.6 101.3 10.8C101.8 11.1 102.1 11.5 102.4 12C102.7 12.5 102.8 13 102.8 13.7C102.8 14.3 102.7 14.8 102.4 15.4ZM109 6.3C108.7 6.2 108.5 6.2 108.2 6.2C107.6 6.2 107.1 6.4 106.7 6.7C106.3 7 106.1 7.6 106.1 8.2V9.8H105C104.9 9.8 104.8 9.8 104.7 9.9C104.6 10 104.6 10.1 104.6 10.2C104.6 10.3 104.6 10.4 104.7 10.5C104.8 10.6 104.9 10.6 105 10.6H106.1V17.1C106.1 17.2 106.1 17.4 106.2 17.4C106.3 17.5 106.4 17.5 106.5 17.5C106.6 17.5 106.8 17.5 106.8 17.4C106.9 17.3 106.9 17.2 106.9 17.1V10.6H108.6C108.7 10.6 108.8 10.6 108.9 10.5C109 10.4 109 10.3 109 10.2C109 10.1 109 10 108.9 9.9C108.8 9.8 108.7 9.8 108.6 9.8H106.9V8.2C106.9 7.8 107 7.5 107.2 7.3C107.4 7.1 107.6 7 108 7C108.1 7 108.3 7 108.5 7.1C108.6 7.2 108.8 7.2 108.8 7.2C108.8 7.2 109 7.2 109.1 7.1C109.2 7 109.2 6.9 109.2 6.8C109.4 6.5 109.3 6.4 109 6.3ZM114.5 10.6C114.6 10.6 114.7 10.6 114.8 10.5C114.9 10.4 114.9 10.3 114.9 10.2C114.9 10.1 114.9 10 114.8 9.9C114.7 9.8 114.6 9.8 114.5 9.8H113V8C113 7.9 113 7.7 112.9 7.7C112.8 7.6 112.7 7.6 112.6 7.6C112.5 7.6 112.3 7.6 112.3 7.7C112 7.7 112 7.8 112 8V9.7H110.9C110.8 9.7 110.7 9.7 110.6 9.8C110.5 9.9 110.5 10 110.5 10.1C110.5 10.2 110.5 10.3 110.6 10.4C110.7 10.5 110.8 10.5 110.9 10.5H112V15.8C112 16.4 112.1 16.8 112.3 17C112.5 17.3 112.7 17.4 112.9 17.5C113.1 17.6 113.4 17.6 113.7 17.6C113.9 17.6 114.1 17.5 114.3 17.4C114.5 17.3 114.6 17.2 114.6 17C114.6 16.9 114.6 16.8 114.5 16.7C114.4 16.6 114.3 16.6 114.2 16.6C114.1 16.6 114.1 16.6 114 16.6C113.9 16.6 113.8 16.6 113.8 16.6C113.5 16.6 113.4 16.5 113.2 16.4C113 16.3 113 16 113 15.6V10.4H114.5V10.6Z" fill="#4B4B4B"/>
</g>
<defs>
<linearGradient id="paint0_linear" x1="4.27328" y1="21.5383" x2="22.9315" y2="2.88012" gradientUnits="userSpaceOnUse">
<stop stop-color="#0090C6"/>
<stop offset="1" stop-color="#1EDDD6"/>
</linearGradient>
<clipPath id="clip0">
<rect width="115" height="24.4" fill="white"/>
</clipPath>
</defs>
</svg>